<?xml version="1.0" encoding="utf-8"?>
<!-- Generator: Adobe Illustrator 27.5.0, SVG Export Plug-In . SVG Version: 6.00 Build 0)  -->
<svg version="1.1" id="Layer_1" xmlns="http://www.w3.org/2000/svg" xmlns:xlink="http://www.w3.org/1999/xlink" x="0px" y="0px"
	 viewBox="0 0 2800 2000" style="enable-background:new 0 0 2800 2000;" xml:space="preserve">
<g>
	<rect style="fill:#FFFFFF;" width="2800" height="2000"/>
	<g>
		<defs>
			<path id="SVGID_1_" d="M2391.133,1814.693c257.949-265.917,27.535-463.055-46.164-683.661
				c-77.985-233.43,382.76-704.137-211.123-941.846C1539.965-48.523,711.322,172.047,722.149,666.373
				c10.828,494.326-532.575,89.359-526.576,726.264c3.165,336.089,266.59,429.59,266.59,429.59L2391.133,1814.693z"/>
		</defs>
		
			<linearGradient id="SVGID_00000128457821808754538200000003284373597910152339_" gradientUnits="userSpaceOnUse" x1="195.5239" y1="957.7184" x2="2510.2312" y2="957.7184">
			<stop  offset="0" style="stop-color:#1F90F2"/>
			<stop  offset="1" style="stop-color:#A3D6FF"/>
		</linearGradient>
		<use xlink:href="#SVGID_1_"  style="overflow:visible;fill:url(#SVGID_00000128457821808754538200000003284373597910152339_);"/>
		<clipPath id="SVGID_00000107579420045933852830000001477970736576907669_">
			<use xlink:href="#SVGID_1_"  style="overflow:visible;"/>
		</clipPath>
		<g style="clip-path:url(#SVGID_00000107579420045933852830000001477970736576907669_);">
			<path style="opacity:0.5;fill:#EAF7FB;" d="M1991.4,1219.558c-13.444-5.606-29.437-8.875-46.449-9.057
				c-15.778-23.683-52.566-39.491-94.376-39.491c-25.091,0-48.881,5.869-67.227,15.933c-20.416-29.43-67.308-49.997-120.437-49.997
				c-34.901,0-68.005,8.69-92.54,24.075c-3.514-0.351-7.06-0.528-10.615-0.528c-38.018,0-68.947,19.509-68.947,43.489
				c0,5.385,1.582,10.651,4.591,15.576H1991.4z"/>
			<path style="opacity:0.5;fill:#EAF7FB;" d="M2452.376,1418.992c-5.832-2.432-12.767-3.85-20.146-3.929
				c-6.845-10.273-22.804-17.13-40.939-17.13c-10.884,0-21.205,2.545-29.162,6.911c-8.855-12.767-29.196-21.688-52.243-21.688
				c-15.141,0-29.5,3.77-40.142,10.443c-1.525-0.152-3.063-0.229-4.605-0.229c-16.491,0-29.907,8.462-29.907,18.864
				c0,2.336,0.686,4.62,1.991,6.757H2452.376z"/>
			<path style="opacity:0.5;fill:#EAF7FB;" d="M1068.009,1560.992c5.832-2.432,12.77-3.85,20.148-3.929
				c6.845-10.273,22.803-17.13,40.938-17.13c10.885,0,21.205,2.545,29.161,6.911c8.857-12.767,29.198-21.688,52.245-21.688
				c15.14,0,29.498,3.77,40.142,10.443c1.523-0.152,3.063-0.229,4.604-0.229c16.491,0,29.907,8.462,29.907,18.864
				c0,2.336-0.686,4.62-1.99,6.757H1068.009z"/>
			<path style="opacity:0.5;fill:#EAF7FB;" d="M739.314,1202.74c-14.887-6.208-32.595-9.827-51.434-10.027
				c-17.472-26.225-58.206-43.729-104.501-43.729c-27.784,0-54.127,6.498-74.441,17.642
				c-22.605-32.587-74.529-55.362-133.359-55.362c-38.646,0-75.301,9.623-102.469,26.659c-3.889-0.389-7.818-0.585-11.753-0.585
				c-42.099,0-76.346,21.603-76.346,48.154c0,5.964,1.752,11.795,5.084,17.248H739.314z"/>
			<path style="opacity:0.5;fill:#EAF7FB;" d="M982.149,254.204c12.101-5.045,26.492-7.988,41.805-8.15
				c14.201-21.315,47.309-35.542,84.938-35.542c22.584,0,43.996,5.282,60.507,14.339c18.374-26.487,60.577-44.998,108.394-44.998
				c31.412,0,61.205,7.821,83.288,21.668c3.161-0.316,6.354-0.476,9.553-0.476c34.217,0,62.053,17.558,62.053,39.141
				c0,4.847-1.424,9.586-4.132,14.018H982.149z"/>
			<path style="opacity:0.5;fill:#EAF7FB;" d="M2017.878,382.766c14.344-5.981,31.405-9.469,49.556-9.662
				c16.833-25.268,56.083-42.133,100.688-42.133c26.771,0,52.152,6.261,71.724,16.998c21.782-31.398,71.81-53.342,128.495-53.342
				c37.234,0,72.553,9.272,98.729,25.686c3.747-0.375,7.531-0.564,11.323-0.564c40.563,0,73.561,20.814,73.561,46.397
				c0,5.746-1.688,11.364-4.899,16.618H2017.878z"/>
		</g>
	</g>
	<path style="fill:#FE978E;" d="M218.512,1845.156h2362.977c12.665,0,22.931-10.266,22.931-22.93l0,0
		c0-12.663-10.266-22.93-22.931-22.93H218.512c-12.664,0-22.93,10.267-22.93,22.93l0,0
		C195.582,1834.891,205.848,1845.156,218.512,1845.156z"/>
	<g>
		<g>
			<path style="fill:#F99662;" d="M1681.281,675.549c0,0,7.348,14.398,7.348,26.593c0,12.197-18.62-8.664-18.62-8.664
				L1681.281,675.549z"/>
			<path style="fill:#020F45;" d="M1813.813,430.366c0,0,48.392-3.565,67.747,30.564c19.358,34.13,49.922,37.695,67.75,55.525
				c17.828,17.829-8.15,48.392,12.226,68.767c20.376,20.377,28.234,13.718,49.412,55.526
				c32.549,64.252-28.858,152.995-117.162,64.692c-48.338-48.338-170.468-66.794-154.855-190.174
				C1745.617,462.411,1738.93,436.989,1813.813,430.366z"/>
			<path style="fill:#02092A;" d="M1825.063,655.052c3.625-6.36,88.473,44.531,88.473,44.531
				c24.713-25.571-4.119-117.147-61.308-138.92C1810.025,544.596,1804.155,642.75,1825.063,655.052z"/>
			<g>
				<path style="fill:#F99662;" d="M1940.146,1432.855c0,0,11.353,353.581,25.138,379.532h-114.345c0,0,61.635-27.572,57.175-47.847
					c0,0-66.905-301.679-57.175-341.417C1860.673,1383.386,1940.146,1432.855,1940.146,1432.855z"/>
				<path style="fill:#F99662;" d="M1771.464,1440.965c0,0,0.264,1.303,0.758,3.747c7.091,35.197,61.688,307.022,61.688,332.804
					c0,27.574,0,27.574,0,27.574l-113.534,1.621c0,0,71.363-28.384,71.363-41.359c0-12.975-114.345-287.081-107.858-329.251
					C1690.369,1393.929,1771.464,1440.965,1771.464,1440.965z"/>
				<path style="fill:#E87A41;" d="M1771.464,1440.965c0,0-81.095-47.036-87.583-4.866c-1.421,9.238,2.958,29.605,10.66,55.92
					c25.861,2.863,55.855,1.181,86.822-1.638c-4.403-22.112-7.724-38.628-9.142-45.669
					C1771.728,1442.268,1771.464,1440.965,1771.464,1440.965z"/>
				<path style="fill:#E87A41;" d="M1940.146,1432.855c0,0-79.473-49.47-89.207-9.731c-2.188,8.943-0.496,31.157,3.441,60.21
					c15.61-1.27,30.825-2.134,45.219-2.134c16.601,0,30.509-0.954,42.168-2.504
					C1940.719,1450.714,1940.146,1432.855,1940.146,1432.855z"/>
			</g>
			<path style="fill:#F99662;" d="M1782.597,911.372c0,0-44.869,61.067-54.601,65.118c-54.791,22.806-172.19-53.367-176.565-50.949
				c-11.356,6.275-43.178,22.25-58.054,17.962c-14.878-4.288-48.084-19.017-46.669-23.929c1.417-4.912,77.653-14.075,73.373-21.822
				c-4.28-7.748-24.63-23.496-14.16-20.479c10.47,3.016,175.79,55.766,187.119,42.331c9.77-11.581,43.47-90.001,43.47-90.001
				L1782.597,911.372z"/>
			<path style="fill:#012B57;" d="M1827.827,647.84c0,0,74.203,9.731,82.717,62.039c8.518,52.306-17.133,205.376,20.682,270.05
				c88.564,151.478,73.848,443.72,70.197,447.371c-3.648,3.647-20.322,25.83-101.825,25.83c-81.502,0-189.298,26.762-246.472,0
				c-57.171-26.763,55.084-378.721,74.547-471.172c19.465-92.451-36.089-154.083-36.089-180.844
				C1691.584,774.352,1723.21,639.324,1827.827,647.84z"/>
			<path style="fill:#F99662;" d="M1840.396,562.282l-4.354,87.088c0,0,13.683,2.93,16.113,12.256
				c2.434,9.326-57.578,98.127-79.881,75.825c-22.301-22.3,13.057-84.516,13.057-84.516l3.571-61.863l38.082-36.089
				L1840.396,562.282z"/>
			<path style="fill:#E87A41;" d="M1787.225,620.093c15.823,9.969,34.742,10.833,50.317-0.72l2.854-57.091l-13.412-7.3
				l-38.082,36.09L1787.225,620.093z"/>
			<path style="fill:#001E6E;" d="M1764.418,1783.98c0,0-54.491,16.02-54.491,22.73c0,6.71,115.091,5.677,127.79-1.621
				c6.383-3.67-0.54-28.783-2.626-30.732c-8.134-7.597-27.167,14.455-42.108,14.455
				C1778.042,1788.813,1771.739,1781.741,1764.418,1783.98z"/>
			<path style="fill:#001E6E;" d="M1890.392,1787.935c0,0-49.088,19.097-49.088,25.807c0,6.711,111.488,5.831,125.855,0.254
				c5.427-2.108-1.94-23.201-1.94-23.201c-2.177-5.725-3.827-6.258-7.254-4.731c-8.774,3.905-23.631,9.781-33.606,9.781
				C1909.416,1795.844,1897.713,1785.697,1890.392,1787.935z"/>
			<path style="fill:#F99662;" d="M1788.009,449.807c0,0-28.526,5.434-32.602,39.393c-4.075,33.958-6.075,82.289,24.239,111.953
				c13.897,13.599,37.232,12.025,67.686-24.719c25.61-30.901,33.726-102.177,6.558-121.874
				C1826.724,434.864,1788.009,449.807,1788.009,449.807z"/>
			<path style="fill:#020F45;" d="M1816.874,435.035c0,0-3.804,27.625-37.228,35.965c-22.648,5.651-31.314,55.693-31.314,55.693
				l-1.753,19.388c-7.514-29.248-4.749-59.984,7.496-87.18c4.704-10.447,14.808-17.479,26.164-18.991L1816.874,435.035z"/>
			<path style="fill:#020F45;" d="M1859.029,454.612c-22.893-19.525-56.608-16.6-68.819-16.029
				c-1.353,4.753-16.737,18.116-17.878,28.246c37.226,16.333,22,73.32,98.447,98.667
				C1896.267,541.524,1875.898,469.001,1859.029,454.612z"/>
			<path style="fill:#E8E1D0;" d="M1912.117,762.511l-2.096-43.007c0,0-64.453,132.418-83.203,151.168
				c-18.75,18.748-117.186-87.889-117.186-87.889s48.194,207.14,107.897,214.171c45.778,5.39,91.804-136.968,92.669-173.181
				C1910.717,802.103,1911.646,781.122,1912.117,762.511z"/>
			<path style="fill:#F99662;" d="M1884.14,669.707c0,0,44.523,3.274,44.044,55.987c-0.275,30.245-84.146,238.047-119.621,232.574
				c-35.477-5.475-87.867-102.604-138.554-215.716c-5.451-12.166-19.783-22.129-23.027-29.834
				c-3.243-7.705,3.62-54.149,18.935-43.178c6.593,4.723,122.655,204.284,137.643,197.074
				C1820.833,858.304,1857.733,663.188,1884.14,669.707z"/>
			<path style="fill:#F99662;" d="M1659.902,645.779c0,0,7.269,24.615,13.512,33.79c6.243,9.175-6.755,17.712-6.755,17.712
				l-12.13-24.81c0,0-4.591-27.45-3.1-30.823C1652.979,638.145,1657.021,636.745,1659.902,645.779z"/>
			<path style="fill:#F99662;" d="M1641.65,650.342c-2.15,1.926-2.527,5.979-1.843,8.783c11.825,48.393,28.652,43.879,29.224,44.675
				l3.042-9.344l-17.544-21.984c0,0-8.273-20.132-10.272-22.13C1643.538,649.622,1642.327,649.737,1641.65,650.342z"/>
			<path style="fill:#F99662;" d="M1664.142,705.968l-15.079-20.29c0,0-2.633-10.889-5.348-10.129
				c-2.716,0.761-2.825,9.888-1.414,12.606c1.414,2.715-0.161,5.432-0.894,8.365c-0.736,2.934,2.856,14.984,7.097,18.485
				C1652.743,718.505,1664.142,705.968,1664.142,705.968z"/>
		</g>
		<g>
			<path style="fill:#F99662;" d="M1437.846,601.153l4.75,51.986c0,0-26.991,7.106-65.678,28.225
				c-2.469-22.085-9.827-31.037-15.931-52.542C1361.806,628.69,1437.846,601.153,1437.846,601.153z"/>
			<path style="fill:#E1D6FC;" d="M911.678,703.646l64.522-59.186c0,0,53.297,31.593,183.13,12.587
				c120.414-17.625,196.735-29.89,207.191-31.582c6.101,21.504,10.703,43.69,13.172,65.776
				c-72.967,39.834-213.615,110.542-324.664,93.738C885.104,759.269,911.678,703.646,911.678,703.646z"/>
			<path style="fill:#E1D6FC;" d="M915.991,699.69c11.81,17.979,45.918,41.051,139.037,55.142
				c108.954,16.485,246.396-51.267,320.46-91.451c1.746,9.266,3.166,18.573,4.204,27.862
				c-72.967,39.834-213.615,110.542-324.664,93.738c-169.924-25.712-143.351-81.334-143.351-81.334L915.991,699.69z"/>
			<path style="fill:#F99662;" d="M962.998,1803.496c0,0,3.999-6.814-22.666-12c-26.664-5.185-55.579-23.845-55.579-23.845
				s-24.443-20.738-14.072-80.736l-45.183,5.186c0,0-17.164,112.396-10.166,119.396
				C822.33,1818.494,948.925,1817.57,962.998,1803.496z"/>
			<path style="fill:#1B4E61;" d="M812.906,1815.873c6.998,6.998,146.656,4.363,160.732-9.71c0,0-6.667-13.328-33.332-18.513
				c-23.447-4.561-48.609-16.563-54.343-19.393c-1.131,4.435-1.949,9.713-1.949,15.689c0,16.477-45.538-9.875-67.973-13.196
				c-1.024-0.151-1.966,0.588-2.083,1.616C811.44,1794.475,810.229,1813.196,812.906,1815.873z"/>
			<path style="fill:#001E6E;" d="M791.033,1162.578c0,0-48.885,432.569,23.703,573.302l62.22-10.37
				c0,0,19.259-607.452,59.256-662.185c39.997-54.733,29.627-142.215,29.627-142.215l-136.388,64.441L791.033,1162.578z"/>
			<g>
				<path style="fill:#001653;" d="M782.781,1255.037c4.093-55.642,8.252-92.459,8.252-92.459l38.418-177.027l14.822-7.002
					l98.22,34.936c-2.955,7.501-11.212,29.461-32.207,86.684C890.587,1153.867,841.129,1209.525,782.781,1255.037z"/>
			</g>
			<path style="fill:#B9004E;" d="M976.199,644.46c0.883,1.147,1.768,2.258,2.626,3.507c10.117,14.697,18.305,41.163,25.268,58.722
				c28.925,69.278,30.516,266.47,6.686,290.302c-13.042,13.04-31.59,11.601-30.017,0.411
				c30.006-213.483,18.929-289.349-13.811-345.156C970.526,648.671,971.605,647.477,976.199,644.46z"/>
			<path style="fill:#F99662;" d="M462.163,883.335c0,0,6.667,8.147,33.333,13.333c26.665,5.185,55.552,19.999,55.552,19.999
				s24.442,20.739,14.072,80.736l45.184-5.185c0,0,19.591-116.773,12.591-123.773C615.896,861.447,476.237,869.261,462.163,883.335z
				"/>
			<path style="fill:#1B4E61;" d="M622.894,868.445c-6.998-6.998-146.657,0.816-160.731,14.89c0,0,6.667,8.147,33.333,13.333
				c23.446,4.559,48.61,16.563,54.343,19.393c1.131-4.435,1.949-9.712,1.949-15.69c0-16.949,48.185,11.421,69.845,13.423
				C624.292,890.892,625.644,871.195,622.894,868.445z"/>
			<g>
				<path style="fill:#001E6E;" d="M554.752,976.663l71.848-6.666c0,0-38.96,174.274-5.927,210.358
					c35.796,39.102,159.991-224.431,159.991-224.431l161.829,50.248c-2.952,6.543-11.205,25.703-32.207,75.67
					c-42.959,102.217-227.394,212.581-337.019,221.47C463.645,1312.2,554.752,976.663,554.752,976.663z"/>
			</g>
			<path style="fill:#F99662;" d="M906.403,553.018l-10.189,111.81l90.365,23.702c0,0-16.298-73.329-10.371-87.402
				C982.135,587.054,906.403,553.018,906.403,553.018z"/>
			<path style="fill:#F0EBFC;" d="M896.215,621.868c0,0-11.688,4.598-18.306,13.452c-0.471,0.629,7.98,2.648,7.472,3.307
				c-7.685,9.907-19.907,22.869-38.054,35.09c-36.294,24.443-43.701,198.507-57.033,237.765
				c-13.333,39.257-37.774,74.81-37.774,74.81s11.85,74.811,180.73,111.846c0,0,97.03-171.101,83.698-279.244
				c-13.332-108.142-38.119-170.926-38.119-170.926L896.215,621.868z"/>
			<g>
				<path style="fill:#001653;" d="M789.809,1058.381c-29.961,0-46.671-5.135-55.987-10.663c5.51-10.115,10.752-19.988,15.6-29.28
					l13.466-7.835C762.887,1010.603,854.684,1058.381,789.809,1058.381z"/>
				<path style="fill:#001653;" d="M926.13,1089.839c-4.167,16.395-8.063,38.704-11.691,65.19
					c-49.521-24.643-80.828-96.648-80.828-96.648S914.85,1074.131,926.13,1089.839z"/>
			</g>
			<g>
				<path style="fill:#F0EBFC;" d="M762.887,985.551l-40.737,23.703c0,0,22.094,42.035,86.968,42.035
					C873.993,1051.289,762.887,985.551,762.887,985.551z"/>
				<path style="fill:#F0EBFC;" d="M835.476,1057.399c0,0,43.702,80.736,111.847,80.736c0,0-23.702-51.85-19.999-68.886
					C931.026,1052.214,835.476,1057.399,835.476,1057.399z"/>
			</g>
			<path style="opacity:0.72;fill:#D1C4A1;" d="M934.372,1105.665c-15.415-3.802-50.583-13.339-86.321-29.05
				c-8.175-11.093-12.575-19.216-12.575-19.216s26.287-1.428,50.75-0.325c18.313,14.788,34.253,28.228,44.444,36.939
				C931.769,1097.852,933.036,1101.792,934.372,1105.665z"/>
			<path style="opacity:0.72;fill:#D1C4A1;" d="M762.887,985.551c0,0,111.106,65.737,46.23,65.737c-3.028,0-5.96-0.091-8.803-0.266
				c-23.753-15.833-43.033-35.13-50.148-58.069L762.887,985.551z"/>
			<path style="fill:#1B4E61;" d="M1016.947,818.894c-2.005-16.256-5.54-38.814-7.938-52.962
				c-21.463-75.425-85.368-109.04-123.726-127.178c-7.692,9.89-19.886,22.794-37.956,34.963
				c-36.294,24.443-43.701,198.507-57.033,237.765c-13.333,39.257-37.774,74.81-37.774,74.81s11.85,74.811,180.73,111.846
				C933.249,1098.138,1030.279,927.037,1016.947,818.894z"/>
			<path style="opacity:0.36;fill:#1B4E61;" d="M970.014,1023.144c-46.879-30.944-116.187-103.963-153.704-271.088l181.694,197.526
				C989.619,975.842,979.617,1001.117,970.014,1023.144z"/>
			<path style="fill:#B4B0BD;" d="M923.033,653.903c0.498-0.773,1.533-0.996,2.316-0.498l45.729,29.68l5.797-28.605
				c0.19-0.905,1.103-1.481,1.978-1.31c0.905,0.184,1.495,1.068,1.311,1.978l-6.78,33.439l-49.854-32.366
				C922.752,655.717,922.528,654.676,923.033,653.903z"/>
			<path style="fill:#FF916C;" d="M888.262,494.494c0,0,15.376,53.031,30.198,73.332c14.823,20.302,78.757,63.034,96.64,37.336
				c17.882-25.7-25.727-104.736-50.276-138.36C940.274,433.178,887.374,461.102,888.262,494.494z"/>
			<path style="fill:#000444;" d="M1003.257,412.035c-36.178-21.242-67.159-2.002-95.832,14.068
				c-28.668,16.069-49.575,24.16-49.575,24.16s-11.295,23.136-0.18,38.362c11.115,15.226-14.22,19.134-4.464,40.216
				c9.754,21.084,51.383,44.083,51.383,44.083s8.128-3.054,9.31-13.748c7.077,13.819,28.124,40.872,47.855,53.978
				c23.716,15.753,64.097,3.698,71.964-12.744c7.867-16.442-19.446-39.048-19.446-39.048s-19.003,15.902-37.759,12.644
				c-13.231-2.3-38.556-22.587-52.321-34.337c-4.301-3.667-6.662-9.075-6.622-14.664c0.113-16.26-4.217-27.917,0.879-31.638
				c6.128-4.475,24.299-14.336,59.809-8.168C1013.768,491.37,1039.438,433.276,1003.257,412.035z"/>
			<path style="fill:#FF916C;" d="M909.04,537.109c0,0-0.642-1.441-1.848-3.273c-3.615-5.497-12.312-14.511-24.006,1.322
				c-15.595,21.111,30.901,41.27,34.278,32.146C918.332,564.96,909.04,537.109,909.04,537.109z"/>
			<g>
				<path style="fill:#8B003B;" d="M1410.668,514.808c0,0-92.484-73.22-113.276-78.199c-20.794-4.979-41.329,72.109-35.471,92.633
					c5.855,20.524,151.676-5.062,151.676-5.062L1410.668,514.808z"/>
				<path style="fill:#68002C;" d="M1411.495,517.455l1.455,4.655c-33.539-0.628-116.292-2.735-151.777-8.665
					c0.858-11.146,3.75-25.251,7.923-38.339L1411.495,517.455z"/>
				<path style="fill:#8B003B;" d="M1538.367,477.713c17.854,7.622,14.767,51.955,14.767,62.437
					c0,8.931-105.876-4.574-139.538-7.339c-5.848-0.481,2.61-10.47,2.61-10.47S1516.776,468.494,1538.367,477.713z"/>
				<path style="fill:#68002C;" d="M1524.014,477.412c-20.563,15.528-69.984,50.316-106.627,55.727
					c-1.347-0.122-2.612-0.232-3.79-0.328c-5.848-0.481,2.61-10.47,2.61-10.47S1488.991,483.371,1524.014,477.412z"/>
				<path style="fill:#E3584B;" d="M1154.991,604.821h415.379V540.15h-399.565c-8.734,0-15.814,7.081-15.814,15.815V604.821z"/>
				<path style="fill:#E3584B;" d="M1176.582,604.821h382.477v270.113c0,9.008-7.303,16.311-16.31,16.311h-349.855
					c-9.009,0-16.312-7.302-16.312-16.311V604.821z"/>
				<path style="fill:#FE978E;" d="M1275.285,604.821h311.535v271.703c0,8.13-6.591,14.72-14.721,14.72h-282.093
					c-8.131,0-14.722-6.59-14.722-14.72V604.821z"/>
				<g>
					<path style="fill:#FFFFFF;" d="M1574.517,806.099c0-30.563-30.845-30.864-30.845-64.654c0-33.894,30.845-33.984,30.845-64.654
						c0-30.56-30.845-30.859-30.845-64.646c0-2.636,0.186-5.067,0.53-7.324h6.293c-0.423,2.24-0.655,4.667-0.655,7.324
						c0,30.56,30.845,30.859,30.845,64.646c0,33.894-30.845,33.985-30.845,64.654c0,30.563,30.845,30.864,30.845,64.654
						c0,33.895-30.845,33.985-30.845,64.654c0,8.854,2.589,15.167,6.266,20.492h-7.363c-3.031-5.369-5.07-11.855-5.07-20.492
						C1543.673,836.858,1574.517,836.768,1574.517,806.099z"/>
					<path style="fill:#FFFFFF;" d="M1515.488,836.296c7.493-7.853,14.569-15.268,14.569-30.197
						c0-30.563-30.845-30.864-30.845-64.654c0-33.894,30.845-33.984,30.845-64.654c0-30.56-30.845-30.859-30.845-64.646
						c0-2.636,0.188-5.067,0.53-7.324h6.294c-0.423,2.24-0.654,4.667-0.654,7.324c0,30.56,30.845,30.859,30.845,64.646
						c0,33.894-30.845,33.985-30.845,64.654c0,30.563,30.845,30.864,30.845,64.654c0,33.895-30.845,33.985-30.845,64.654
						c0,8.966,2.553,15.223,6.215,20.492h-7.313c-3.033-5.369-5.072-11.855-5.072-20.492
						C1499.213,853.354,1507.487,844.682,1515.488,836.296z"/>
					<path style="fill:#FFFFFF;" d="M1485.598,806.099c0-30.563-30.844-30.864-30.844-64.654c0-33.894,30.844-33.984,30.844-64.654
						c0-30.56-30.844-30.859-30.844-64.646c0-2.636,0.187-5.067,0.531-7.324h6.292c-0.422,2.24-0.654,4.667-0.654,7.324
						c0,30.56,30.845,30.859,30.845,64.646c0,17.399-8.274,26.071-16.274,34.457c-7.493,7.853-14.57,15.269-14.57,30.197
						c0,30.563,30.845,30.864,30.845,64.654c0,33.895-30.845,33.985-30.845,64.654c0,8.966,2.555,15.223,6.217,20.492h-7.314
						c-3.031-5.369-5.071-11.855-5.071-20.492C1454.754,836.858,1485.598,836.768,1485.598,806.099z"/>
					<path style="fill:#FFFFFF;" d="M1441.141,806.099c0-14.928-7.078-22.344-14.57-30.197c-8-8.386-16.275-17.058-16.275-34.457
						c0-33.894,30.846-33.984,30.846-64.654c0-30.56-30.846-30.859-30.846-64.646c0-2.636,0.188-5.067,0.53-7.324h6.294
						c-0.423,2.24-0.655,4.667-0.655,7.324c0,30.56,30.846,30.859,30.846,64.646c0,17.399-8.274,26.071-16.276,34.457
						c-7.492,7.853-14.569,15.269-14.569,30.197c0,30.563,30.846,30.864,30.846,64.654c0,33.895-30.846,33.985-30.846,64.654
						c0,8.966,2.554,15.223,6.217,20.492h-7.313c-3.033-5.369-5.072-11.855-5.072-20.492
						C1410.295,836.858,1441.141,836.768,1441.141,806.099z"/>
					<path style="fill:#FFFFFF;" d="M1382.11,836.296c7.494-7.853,14.57-15.268,14.57-30.197c0-30.563-30.845-30.864-30.845-64.654
						c0-33.894,30.845-33.984,30.845-64.654c0-30.56-30.845-30.859-30.845-64.646c0-2.636,0.187-5.067,0.531-7.324h6.292
						c-0.422,2.24-0.654,4.667-0.654,7.324c0,30.56,30.845,30.859,30.845,64.646c0,33.894-30.845,33.985-30.845,64.654
						c0,14.929,7.077,22.345,14.57,30.197c8,8.386,16.274,17.059,16.274,34.456c0,33.895-30.845,33.985-30.845,64.654
						c0,8.966,2.553,15.223,6.217,20.492h-7.314c-3.031-5.369-5.071-11.855-5.071-20.492
						C1365.836,853.354,1374.11,844.682,1382.11,836.296z"/>
					<path style="fill:#FFFFFF;" d="M1352.222,806.099c0-14.928-7.078-22.344-14.571-30.197c-8-8.386-16.275-17.058-16.275-34.457
						c0-33.894,30.846-33.984,30.846-64.654c0-30.56-30.846-30.859-30.846-64.646c0-2.636,0.187-5.067,0.531-7.324h6.294
						c-0.423,2.24-0.655,4.667-0.655,7.324c0,30.56,30.844,30.859,30.844,64.646c0,33.894-30.844,33.985-30.844,64.654
						c0,14.929,7.077,22.345,14.569,30.197c8,8.386,16.274,17.059,16.274,34.456c0,33.895-30.844,33.985-30.844,64.654
						c0,8.854,2.587,15.167,6.264,20.492h-7.362c-3.031-5.369-5.071-11.855-5.071-20.492
						C1321.376,836.858,1352.222,836.768,1352.222,806.099z"/>
					<path style="fill:#FFFFFF;" d="M1307.763,806.099c0-30.563-30.845-30.864-30.845-64.654c0-17.398,8.275-26.07,16.275-34.456
						c7.494-7.853,14.57-15.269,14.57-30.197c0-30.56-30.845-30.859-30.845-64.646c0-2.636,0.187-5.067,0.531-7.324h6.292
						c-0.423,2.24-0.654,4.667-0.654,7.324c0,30.56,30.845,30.859,30.845,64.646c0,33.894-30.845,33.985-30.845,64.654
						c0,14.929,7.077,22.345,14.57,30.197c8,8.386,16.274,17.059,16.274,34.456c0,17.399-8.274,26.071-16.274,34.457
						c-7.493,7.853-14.57,15.268-14.57,30.197c0,8.845,2.581,15.155,6.254,20.476c-3.568-0.159-6.808-1.588-9.272-3.846
						c-1.94-4.56-3.151-9.938-3.151-16.629C1276.918,836.858,1307.763,836.768,1307.763,806.099z"/>
				</g>
				
					<rect x="1275.285" y="604.565" transform="matrix(-1 -1.224647e-16 1.224647e-16 -1 2862.1055 1226.5303)" style="opacity:0.51;fill:#AB6248;" width="311.535" height="17.399"/>
				<rect x="1176.582" y="604.565" style="opacity:0.51;fill:#AB6248;" width="98.703" height="17.399"/>
				<path style="fill:#B9185E;" d="M1283.512,374.44c-20.777-4.09-77.405,100.5-59.529,121.597
					c6.619,7.813,189.423,28.143,189.423,28.143l-3.563-9.372C1409.843,514.808,1308.801,379.418,1283.512,374.44z"/>
				
					<rect x="1381.082" y="604.821" transform="matrix(-1 -1.224647e-16 1.224647e-16 -1 2815.1133 1496.0653)" style="fill:#B9004E;" width="52.949" height="286.424"/>
				<path style="fill:#FE978E;" d="M1261.921,604.821h338.265v-48.298c0-9.042-7.329-16.373-16.371-16.373h-305.522
					c-9.042,0-16.371,7.33-16.371,16.373V604.821z"/>
				<path style="fill:#BFEBF4;" d="M1278.292,540.149h305.521c9.043,0,16.374,7.331,16.374,16.373v18.474
					c0-9.042-7.331-16.373-16.374-16.373h-305.521c-9.042,0-16.371,7.331-16.371,16.373v-18.474
					C1261.921,547.48,1269.25,540.149,1278.292,540.149z"/>
				
					<rect x="1381.99" y="540.15" transform="matrix(-1 -1.224647e-16 1.224647e-16 -1 2816.9307 1144.9707)" style="fill:#8B003B;" width="52.95" height="64.671"/>
				<path style="fill:#B9004E;" d="M1418.789,534.061c0,0,32.215-4.1,50.957,24.015c18.744,28.114,45.1,50.958,76.729,42.171
					c0,0-4.1,52.129-18.743,58.572c0,0-52.715-5.481-77.9-62.483c-25.186-57.004-41.586-58.175-41.586-58.175L1418.789,534.061z"/>
				<path style="fill:#B9004E;" d="M1411.716,523.913c0,0-20.557-8.558-43.38,14.267c-22.825,22.824-65.563,57.4-90.164,53.886
					c0,0-0.585,49.2,19.915,56.815c0,0,52.129-2.929,76.729-48.029C1399.416,555.75,1401.173,523.704,1411.716,523.913z"/>
				<path style="fill:#B9185E;" d="M1409.113,507.91c0,0,19.535-84.186,48.698-123.7c29.162-39.514,44.718-32.839,55.742-28.079
					c11.023,4.76,52.084,55.902,39.27,82.549c-12.812,26.648-139.148,79.068-139.148,79.068L1409.113,507.91z"/>
				<path style="opacity:0.33;fill:#B9004E;" d="M1528.747,423.701c4.113-5.645,12.746-13.38,21.108-19.491
					c5.276,12.463,7.519,25.011,2.969,34.471c-12.812,26.648-139.148,79.068-139.148,79.068s19.367-12.495,57.507-37.061
					C1498.016,463.404,1514.554,443.179,1528.747,423.701z"/>
				
					<rect x="1381.082" y="604.821" transform="matrix(-1 -1.224647e-16 1.224647e-16 -1 2815.1133 1223.9282)" style="fill:#68002C;" width="52.949" height="14.287"/>
				
					<rect x="1185.322" y="540.15" transform="matrix(-1 -1.224647e-16 1.224647e-16 -1 2414.8357 1144.7152)" style="fill:#8B003B;" width="44.191" height="64.415"/>
				<path style="fill:#8B003B;" d="M1411.498,541.533h-6.066c-6.011,0-10.884-4.873-10.884-10.884v-17.843
					c0-6.011,4.873-10.884,10.884-10.884h6.066c6.011,0,10.885,4.873,10.885,10.884v17.843
					C1422.383,536.66,1417.509,541.533,1411.498,541.533z"/>
				<path style="fill:#68002C;" d="M1399.513,503.671c-1.106,1.704-1.749,3.736-1.749,5.919v17.843
					c0,6.011,4.873,10.884,10.883,10.884h6.068c2.183,0,4.215-0.643,5.918-1.749c-1.94,2.988-5.306,4.965-9.135,4.965h-6.066
					c-6.011,0-10.884-4.873-10.884-10.884v-17.843C1394.548,508.978,1396.525,505.611,1399.513,503.671z"/>
			</g>
			<path style="fill:#F99662;" d="M1205.951,892.228c0-6.499,4.117-37.55,20.637-41.903c8.636-2.275-10.929,21.435-3.349,23.602
				c3.858,1.102,14.484-5.867,25.142-13.34c21.934-16.585,31.482-48.303,38.739-44.343c7.401,4.041-14.921,42.834-14.858,43.022
				c4.023-6.105,12.077-20.907,14.858-19.389c5.764,3.145-3.453,20.227-7.915,27.792c-0.004,0.21-6.371,10.692-6.373,10.902
				c3.761-5.609,13.084-19.204,15.739-17.755c7.448,4.065-16.979,35.476-18.382,36.88c-4.61,4.608-59.366,37.12-119.866,58.489
				c-0.945-15.567-1.21-31.541-1.266-47.641C1183.813,904.72,1205.951,895.269,1205.951,892.228z"/>
			<path style="fill:#FFFFFF;" d="M836.354,679.223c27.708-19.447,66.604,2.447,80.227,33.435
				c26.461,60.188,82.541,178.864,118.74,192.138c25.941,9.511,74.19,8.101,113.736,3.748c10.271,17.922,9.326,41.078,10.271,56.646
				c-46.128,16.293-125.212,26.453-153.559,20.361c-65.529-14.08-179.489-200.98-193.029-242.68
				C805.972,722.021,817.678,692.332,836.354,679.223z"/>
		</g>
	</g>
</g>
</svg>
